{
  "accessors": [
    {
      "bufferView": 2,
      "componentType": 5126,
      "count": 31440,
      "max": [
        10.226621627807617,
        4.370275020599365,
        4.6175456047058105
      ],
      "min": [
        -24.351696014404297,
        -6.126251220703125,
        -37.75035095214844
      ],
      "type": "VEC3"
    },
    {
      "bufferView": 2,
      "byteOffset": 377280,
      "componentType": 5126,
      "count": 31440,
      "max": [
        0.9995952248573303,
        0.9999799728393555,
        0.9733019471168518
      ],
      "min": [
        -0.9995952248573303,
        -0.9999799728393555,
        -0.9733019471168518
      ],
      "type": "VEC3"
    },
    {
      "bufferView": 3,
      "componentType": 5126,
      "count": 31440,
      "max": [
        0.3450980484485626,
        0.729411780834198,
        0.8901960849761963,
        1.0
      ],
      "min": [
        0.11372549086809158,
        0.27450981736183167,
        0.5411764979362488,
        1.0
      ],
      "type": "VEC4"
    },
    {
      "bufferView": 1,
      "componentType": 5126,
      "count": 31440,
      "max": [
        1.0,
        1.0
      ],
      "min": [
        0.0,
        0.0
      ],
      "type": "VEC2"
    },
    {
      "bufferView": 1,
      "byteOffset": 251520,
      "componentType": 5126,
      "count": 31440,
      "max": [
        1.0,
        1.0
      ],
      "min": [
        0.0,
        0.0
      ],
      "type": "VEC2"
    },
    {
      "bufferView": 0,
      "componentType": 5125,
      "count": 74328,
      "type": "SCALAR"
    },
    {
      "bufferView": 2,
      "byteOffset": 754560,
      "componentType": 5126,
      "count": 9952,
      "max": [
        -3.5560576915740967,
        0.020928217098116875,
        -1.6977580785751343
      ],
      "min": [
        -6.439042091369629,
        -2.1283328533172607,
        -7.7880096435546875
      ],
      "type": "VEC3"
    },
    {
      "bufferView": 2,
      "byteOffset": 873984,
      "componentType": 5126,
      "count": 9952,
      "max": [
        0.9985544085502625,
        0.9999843835830688,
        0.9992331266403198
      ],
      "min": [
        -0.9985544085502625,
        -0.9999843835830688,
        -0.9992331266403198
      ],
      "type": "VEC3"
    },
    {
      "bufferView": 3,
      "byteOffset": 503040,
      "componentType": 5126,
      "count": 9952,
      "max": [
        0.8980392217636108,
        0.6823529601097107,
        0.9254902005195618,
        1.0
      ],
      "min": [
        0.062745101749897,
        0.06666667014360428,
        0.16078431904315948,
        1.0
      ],
      "type": "VEC4"
    },
    {
      "bufferView": 1,
      "byteOffset": 503040,
      "componentType": 5126,
      "count": 9952,
      "max": [
        1.0,
        1.0
      ],
      "min": [
        0.0,
        0.0
      ],
      "type": "VEC2"
    },
    {
      "bufferView": 1,
      "byteOffset": 582656,
      "componentType": 5126,
      "count": 9952,
      "max": [
        1.0,
        1.0
      ],
      "min": [
        0.0,
        0.0
      ],
      "type": "VEC2"
    },
    {
      "bufferView": 0,
      "byteOffset": 297312,
      "componentType": 5125,
      "count": 23352,
      "type": "SCALAR"
    },
    {
      "bufferView": 2,
      "byteOffset": 993408,
      "componentType": 5126,
      "count": 3588,
      "max": [
        -4.615579128265381,
        3.2530295848846436,
        -4.358846187591553
      ],
      "min": [
        -10.972320556640625,
        -1.680807113647461,
        -30.03412437438965
      ],
      "type": "VEC3"
    },
    {
      "bufferView": 2,
      "byteOffset": 1036464,
      "componentType": 5126,
      "count": 3588,
      "max": [
        0.9988380074501038,
        0.9999122619628906,
        0.9987133145332336
      ],
      "min": [
        -0.9986481070518494,
        -0.9949712753295898,
        -0.9991976618766785
      ],
      "type": "VEC3"
    },
    {
      "bufferView": 3,
      "byteOffset": 662272,
      "componentType": 5126,
      "count": 3588,
      "max": [
        0.9686274528503418,
        0.9725490212440491,
        0.9176470637321472,
        1.0
      ],
      "min": [
        0.4588235318660736,
        0.2823529541492462,
        0.1882352977991104,
        0.0
      ],
      "type": "VEC4"
    },
    {
      "bufferView": 1,
      "byteOffset": 662272,
      "componentType": 5126,
      "count": 3588,
      "max": [
        2.4205703735351563,
        1.0
      ],
      "min": [
        0.030394280329346657,
        0.0
      ],
      "type": "VEC2"
    },
    {
      "bufferView": 1,
      "byteOffset": 690976,
      "componentType": 5126,
      "count": 3588,
      "max": [
        2.4205703735351563,
        1.0
      ],
      "min": [
        0.030394280329346657,
        0.0
      ],
      "type": "VEC2"
    },
    {
      "bufferView": 0,
      "byteOffset": 390720,
      "componentType": 5125,
      "count": 10026,
      "type": "SCALAR"
    },
    {
      "bufferView": 2,
      "byteOffset": 1079520,
      "componentType": 5126,
      "count": 41686,
      "max": [
        -4.506924629211426,
        0.7652973532676697,
        -3.7898452281951904
      ],
      "min": [
        -6.265310764312744,
        -1.9212989807128906,
        -6.637055397033691
      ],
      "type": "VEC3"
    },
    {
      "bufferView": 2,
      "byteOffset": 1579752,
      "componentType": 5126,
      "count": 41686,
      "max": [
        0.9999728798866272,
        0.9998626112937927,
        0.9997190833091736
      ],
      "min": [
        -0.9999987483024597,
        -0.9998832941055298,
        -0.9999478459358215
      ],
      "type": "VEC3"
    },
    {
      "bufferView": 3,
      "byteOffset": 719680,
      "componentType": 5126,
      "count": 41686,
      "max": [
        0.9607843160629272,
        0.929411768913269,
        0.9098039269447327,
        1.0
      ],
      "min": [
        0.054901961237192154,
        0.0313725508749485,
        0.019607843831181526,
        1.0
      ],
      "type": "VEC4"
    },
    {
      "bufferView": 1,
      "byteOffset": 719680,
      "componentType": 5126,
      "count": 41686,
      "max": [
        1.0,
        1.0
      ],
      "min": [
        0.0,
        0.0
      ],
      "type": "VEC2"
    },
    {
      "bufferView": 1,
      "byteOffset": 1053168,
      "componentType": 5126,
      "count": 41686,
      "max": [
        1.4439740180969238,
        0.7999297976493835
      ],
      "min": [
        -1.4439740180969238,
        -0.7999297976493835
      ],
      "type": "VEC2"
    },
    {
      "bufferView": 0,
      "byteOffset": 430824,
      "componentType": 5125,
      "count": 116334,
      "type": "SCALAR"
    },
    {
      "bufferView": 2,
      "byteOffset": 2079984,
      "componentType": 5126,
      "count": 3232,
      "max": [
        -6.877185344696045,
        3.52445387840271,
        -26.32390785217285
      ],
      "min": [
        -11.185640335083008,
        -0.8108207583427429,
        -29.402387619018555
      ],
      "type": "VEC3"
    },
    {
      "bufferView": 2,
      "byteOffset": 2118768,
      "componentType": 5126,
      "count": 3232,
      "max": [
        0.9996219277381897,
        0.9468316435813904,
        0.999905526638031
      ],
      "min": [
        -0.90645432472229,
        -0.4999045431613922,
        -0.09793664515018463
      ],
      "type": "VEC3"
    },
    {
      "bufferView": 3,
      "byteOffset": 1386656,
      "componentType": 5126,
      "count": 3232,
      "max": [
        0.8941176533699036,
        0.5843137502670288,
        0.27843138575553894,
        0.9960784316062927
      ],
      "min": [
        0.5647059082984924,
        0.06666667014360428,
        0.11372549086809158,
        0.545098066329956
      ],
      "type": "VEC4"
    },
    {
      "bufferView": 1,
      "byteOffset": 1386656,
      "componentType": 5126,
      "count": 3232,
      "max": [
        1.0,
        1.0
      ],
      "min": [
        0.0,
        0.0
      ],
      "type": "VEC2"
    },
    {
      "bufferView": 1,
      "byteOffset": 1412512,
      "componentType": 5126,
      "count": 3232,
      "max": [
        1.0,
        1.0
      ],
      "min": [
        0.0,
        0.0
      ],
      "type": "VEC2"
    },
    {
      "bufferView": 0,
      "byteOffset": 896160,
      "componentType": 5125,
      "count": 7650,
      "type": "SCALAR"
    },
    {
      "bufferView": 2,
      "byteOffset": 2157552,
      "componentType": 5126,
      "count": 4722,
      "max": [
        5.1591410636901855,
        19.46994400024414,
        -18.051578521728516
      ],
      "min": [
        -25.8853816986084,
        -4.483079433441162,
        -35.3830680847168
      ],
      "type": "VEC3"
    },
    {
      "bufferView": 2,
      "byteOffset": 2214216,
      "componentType": 5126,
      "count": 4722,
      "max": [
        0.9845271706581116,
        0.9963664412498474,
        0.9998013973236084
      ],
      "min": [
        -0.5636016130447388,
        -0.7078955173492432,
        -0.11767985671758652
      ],
      "type": "VEC3"
    },
    {
      "bufferView": 3,
      "byteOffset": 1438368,
      "componentType": 5126,
      "count": 4722,
      "max": [
        0.3490196168422699,
        0.2980392277240753,
        0.41960784792900085,
        1.0
      ],
      "min": [
        0.019607843831181526,
        0.07058823853731155,
        0.12941177189350128,
        1.0
      ],
      "type": "VEC4"
    },
    {
      "bufferView": 1,
      "byteOffset": 1438368,
      "componentType": 5126,
      "count": 4722,
      "max": [
        1.0,
        1.0
      ],
      "min": [
        0.0,
        0.0
      ],
      "type": "VEC2"
    },
    {
      "bufferView": 1,
      "byteOffset": 1476144,
      "componentType": 5126,
      "count": 4722,
      "max": [
        1.0,
        1.0
      ],
      "min": [
        0.0,
        0.0
      ],
      "type": "VEC2"
    },
    {
      "bufferView": 0,
      "byteOffset": 926760,
      "componentType": 5125,
      "count": 10998,
      "type": "SCALAR"
    },
    {
      "bufferView": 2,
      "byteOffset": 2270880,
      "componentType": 5126,
      "count": 2120,
      "max": [
        -5.193141937255859,
        0.42425695061683655,
        -5.285213470458984
      ],
      "min": [
        -5.621288776397705,
        0.36482223868370056,
        -5.463810443878174
      ],
      "type": "VEC3"
    },
    {
      "bufferView": 2,
      "byteOffset": 2296320,
      "componentType": 5126,
      "count": 2120,
      "max": [
        0.9762479066848755,
        0.9999796152114868,
        0.9979509115219116
      ],
      "min": [
        -0.9762479066848755,
        -0.9999796152114868,
        -0.9979509115219116
      ],
      "type": "VEC3"
    },
    {
      "bufferView": 3,
      "byteOffset": 1513920,
      "componentType": 5126,
      "count": 2120,
      "max": [
        0.0784313753247261,
        0.0470588244497776,
        0.0313725508749485,
        1.0
      ],
      "min": [
        0.0784313753247261,
        0.0470588244497776,
        0.0313725508749485,
        1.0
      ],
      "type": "VEC4"
    },
    {
      "bufferView": 1,
      "byteOffset": 1513920,
      "componentType": 5126,
      "count": 2120,
      "max": [
        1.0,
        1.0
      ],
      "min": [
        0.0,
        0.0
      ],
      "type": "VEC2"
    },
    {
      "bufferView": 1,
      "byteOffset": 1530880,
      "componentType": 5126,
      "count": 2120,
      "max": [
        1.0,
        1.0
      ],
      "min": [
        0.0,
        0.0
      ],
      "type": "VEC2"
    },
    {
      "bufferView": 0,
      "byteOffset": 970752,
      "componentType": 5125,
      "count": 4776,
      "type": "SCALAR"
    },
    {
      "bufferView": 2,
      "byteOffset": 2321760,
      "componentType": 5126,
      "count": 14716,
      "max": [
        -4.250616073608398,
        0.8613595962524414,
        -3.924913167953491
      ],
      "min": [
        -5.663707256317139,
        -0.39017486572265625,
        -5.44055700302124
      ],
      "type": "VEC3"
    },
    {
      "bufferView": 2,
      "byteOffset": 2498352,
      "componentType": 5126,
      "count": 14716,
      "max": [
        0.9996180534362793,
        0.9999054074287415,
        0.9997212290763855
      ],
      "min": [
        -0.9996180534362793,
        -0.9999054074287415,
        -0.9997212290763855
      ],
      "type": "VEC3"
    },
    {
      "bufferView": 3,
      "byteOffset": 1547840,
      "componentType": 5126,
      "count": 14716,
      "max": [
        0.0784313753247261,
        0.0470588244497776,
        0.0313725508749485,
        1.0
      ],
      "min": [
        0.0784313753247261,
        0.0470588244497776,
        0.0313725508749485,
        0.0
      ],
      "type": "VEC4"
    },
    {
      "bufferView": 1,
      "byteOffset": 1547840,
      "componentType": 5126,
      "count": 14716,
      "max": [
        7.8420796394348145,
        1.0
      ],
      "min": [
        0.003306237980723381,
        0.0
      ],
      "type": "VEC2"
    },
    {
      "bufferView": 1,
      "byteOffset": 1665568,
      "componentType": 5126,
      "count": 14716,
      "max": [
        7.8420796394348145,
        1.0
      ],
      "min": [
        0.003306237980723381,
        0.0
      ],
      "type": "VEC2"
    },
    {
      "bufferView": 0,
      "byteOffset": 989856,
      "componentType": 5125,
      "count": 42900,
      "type": "SCALAR"
    }
  ],
  "asset": {
    "extras": {
      "author": "Alleycat Animation (https://sketchfab.com/alleycat)",
      "license": "CC-BY-4.0 (http://creativecommons.org/licenses/by/4.0/)",
      "source": "https://sketchfab.com/3d-models/stuck-in-a-dream-barrel-tilt-brush-3441034f6294461089cf593aa25e8344",
      "title": "Stuck in a dream barrel - Tilt Brush"
    },
    "generator": "Sketchfab-12.64.0",
    "version": "2.0"
  },
  "bufferViews": [
    {
      "buffer": 0,
      "byteLength": 1161456,
      "name": "floatBufferViews",
      "target": 34963
    },
    {
      "buffer": 0,
      "byteLength": 1783296,
      "byteOffset": 1161456,
      "byteStride": 8,
      "name": "floatBufferViews",
      "target": 34962
    },
    {
      "buffer": 0,
      "byteLength": 2674944,
      "byteOffset": 2944752,
      "byteStride": 12,
      "name": "floatBufferViews",
      "target": 34962
    },
    {
      "buffer": 0,
      "byteLength": 1783296,
      "byteOffset": 5619696,
      "byteStride": 16,
      "name": "floatBufferViews",
      "target": 34962
    }
  ],
  "buffers": [
    {
      "byteLength": 7402992,
      "uri": "scene.bin"
    }
  ],
  "images": [
    {
      "uri": "textures/OilPaint_baseColor.png"
    },
    {
      "uri": "textures/material_baseColor.png"
    },
    {
      "uri": "textures/Marker_baseColor.png"
    },
    {
      "uri": "textures/DoubleTaperedFlat_baseColor.png"
    },
    {
      "uri": "textures/Light_baseColor.png"
    },
    {
      "uri": "textures/SoftHighlighter_baseColor.png"
    },
    {
      "uri": "textures/ThickPaint_baseColor.png"
    }
  ],
  "materials": [
    {
      "alphaMode": "BLEND",
      "doubleSided": true,
      "emissiveFactor": [
        1.0,
        1.0,
        1.0
      ],
      "name": "OilPaint",
      "pbrMetallicRoughness": {
        "baseColorFactor": [
          1.0,
          1.0,
          1.0,
          0.7116996951219512
        ],
        "baseColorTexture": {
          "index": 0
        },
        "metallicFactor": 0.0,
        "roughnessFactor": 0.0
      }
    },
    {
      "alphaCutoff": 0.08098323170731703,
      "alphaMode": "MASK",
      "doubleSided": true,
      "emissiveFactor": [
        1.0,
        1.0,
        1.0
      ],
      "name": "material",
      "pbrMetallicRoughness": {
        "baseColorTexture": {
          "index": 1
        },
        "metallicFactor": 0.0,
        "roughnessFactor": 0.0
      }
    },
    {
      "alphaCutoff": 0.5565929878048781,
      "alphaMode": "MASK",
      "doubleSided": true,
      "emissiveFactor": [
        1.0,
        1.0,
        1.0
      ],
      "name": "Marker",
      "pbrMetallicRoughness": {
        "baseColorTexture": {
          "index": 2
        },
        "metallicFactor": 0.0
      }
    },
    {
      "alphaCutoff": 0.05049542682926827,
      "alphaMode": "MASK",
      "doubleSided": true,
      "emissiveFactor": [
        1.0,
        1.0,
        1.0
      ],
      "name": "DoubleTaperedFlat",
      "pbrMetallicRoughness": {
        "baseColorTexture": {
          "index": 3
        },
        "metallicFactor": 0.0,
        "roughnessFactor": 0.0
      }
    },
    {
      "alphaMode": "BLEND",
      "doubleSided": true,
      "emissiveFactor": [
        1.0,
        1.0,
        1.0
      ],
      "name": "Light",
      "pbrMetallicRoughness": {
        "baseColorFactor": [
          1.0,
          1.0,
          1.0,
          0.8946265243902439
        ],
        "baseColorTexture": {
          "index": 4
        },
        "metallicFactor": 0.0
      }
    },
    {
      "alphaMode": "BLEND",
      "doubleSided": true,
      "emissiveFactor": [
        1.0,
        1.0,
        1.0
      ],
      "name": "SoftHighlighter",
      "pbrMetallicRoughness": {
        "baseColorTexture": {
          "index": 5
        },
        "metallicFactor": 0.0
      }
    },
    {
      "doubleSided": true,
      "emissiveFactor": [
        1.0,
        1.0,
        1.0
      ],
      "name": "TaperedFlat",
      "pbrMetallicRoughness": {
        "metallicFactor": 0.0
      }
    },
    {
      "alphaCutoff": 0.4468368902439025,
      "alphaMode": "MASK",
      "doubleSided": true,
      "emissiveFactor": [
        1.0,
        1.0,
        1.0
      ],
      "name": "ThickPaint",
      "pbrMetallicRoughness": {
        "baseColorTexture": {
          "index": 6
        },
        "metallicFactor": 0.0,
        "roughnessFactor": 0.0
      }
    }
  ],
  "meshes": [
    {
      "name": "OilPaint_geo_OilPaint_0",
      "primitives": [
        {
          "attributes": {
            "COLOR_0": 2,
            "NORMAL": 1,
            "POSITION": 0,
            "TEXCOORD_0": 3,
            "TEXCOORD_1": 4
          },
          "indices": 5,
          "material": 0,
          "mode": 4
        }
      ]
    },
    {
      "name": "Ink_geo_Ink_0",
      "primitives": [
        {
          "attributes": {
            "COLOR_0": 8,
            "NORMAL": 7,
            "POSITION": 6,
            "TEXCOORD_0": 9,
            "TEXCOORD_1": 10
          },
          "indices": 11,
          "material": 1,
          "mode": 4
        }
      ]
    },
    {
      "name": "Marker_geo_Marker_0",
      "primitives": [
        {
          "attributes": {
            "COLOR_0": 14,
            "NORMAL": 13,
            "POSITION": 12,
            "TEXCOORD_0": 15,
            "TEXCOORD_1": 16
          },
          "indices": 17,
          "material": 2,
          "mode": 4
        }
      ]
    },
    {
      "name": "DoubleTaperedFlat_geo_DoubleTaperedFlat_0",
      "primitives": [
        {
          "attributes": {
            "COLOR_0": 20,
            "NORMAL": 19,
            "POSITION": 18,
            "TEXCOORD_0": 21,
            "TEXCOORD_1": 22
          },
          "indices": 23,
          "material": 3,
          "mode": 4
        }
      ]
    },
    {
      "name": "Light_geo_Light_0",
      "primitives": [
        {
          "attributes": {
            "COLOR_0": 26,
            "NORMAL": 25,
            "POSITION": 24,
            "TEXCOORD_0": 27,
            "TEXCOORD_1": 28
          },
          "indices": 29,
          "material": 4,
          "mode": 4
        }
      ]
    },
    {
      "name": "SoftHighlighter_geo_SoftHighlighter_0",
      "primitives": [
        {
          "attributes": {
            "COLOR_0": 32,
            "NORMAL": 31,
            "POSITION": 30,
            "TEXCOORD_0": 33,
            "TEXCOORD_1": 34
          },
          "indices": 35,
          "material": 5,
          "mode": 4
        }
      ]
    },
    {
      "name": "TaperedFlat_geo_TaperedFlat_0",
      "primitives": [
        {
          "attributes": {
            "COLOR_0": 38,
            "NORMAL": 37,
            "POSITION": 36,
            "TEXCOORD_0": 39,
            "TEXCOORD_1": 40
          },
          "indices": 41,
          "material": 6,
          "mode": 4
        }
      ]
    },
    {
      "name": "ThickPaint_geo_ThickPaint_0",
      "primitives": [
        {
          "attributes": {
            "COLOR_0": 44,
            "NORMAL": 43,
            "POSITION": 42,
            "TEXCOORD_0": 45,
            "TEXCOORD_1": 46
          },
          "indices": 47,
          "material": 7,
          "mode": 4
        }
      ]
    }
  ],
  "nodes": [
    {
      "children": [
        1
      ],
      "matrix": [
        0.5,
        0.0,
        0.0,
        0.0,
        0.0,
        1.1102230246251565e-16,
        -0.5,
        0.0,
        0.0,
        0.5,
        1.1102230246251565e-16,
        0.0,
        0.0,
        0.0,
        0.0,
        1.0
      ],
      "name": "Sketchfab_model"
    },
    {
      "children": [
        2
      ],
      "matrix": [
        1.0,
        0.0,
        0.0,
        0.0,
        0.0,
        0.0,
        1.0,
        0.0,
        0.0,
        -1.0,
        0.0,
        0.0,
        0.0,
        0.0,
        0.0,
        1.0
      ],
      "name": "83e950c778de498ea2e784c54c52a658.fbx"
    },
    {
      "children": [
        3,
        5,
        7,
        9,
        11,
        13,
        15,
        17
      ],
      "name": "RootNode"
    },
    {
      "children": [
        4
      ],
      "name": "OilPaint_geo"
    },
    {
      "mesh": 0,
      "name": "OilPaint_geo_OilPaint_0"
    },
    {
      "children": [
        6
      ],
      "name": "Ink_geo"
    },
    {
      "mesh": 1,
      "name": "Ink_geo_Ink_0"
    },
    {
      "children": [
        8
      ],
      "name": "Marker_geo"
    },
    {
      "mesh": 2,
      "name": "Marker_geo_Marker_0"
    },
    {
      "children": [
        10
      ],
      "name": "DoubleTaperedFlat_geo"
    },
    {
      "mesh": 3,
      "name": "DoubleTaperedFlat_geo_DoubleTaperedFlat_0"
    },
    {
      "children": [
        12
      ],
      "name": "Light_geo"
    },
    {
      "mesh": 4,
      "name": "Light_geo_Light_0"
    },
    {
      "children": [
        14
      ],
      "name": "SoftHighlighter_geo"
    },
    {
      "mesh": 5,
      "name": "SoftHighlighter_geo_SoftHighlighter_0"
    },
    {
      "children": [
        16
      ],
      "name": "TaperedFlat_geo"
    },
    {
      "mesh": 6,
      "name": "TaperedFlat_geo_TaperedFlat_0"
    },
    {
      "children": [
        18
      ],
      "name": "ThickPaint_geo"
    },
    {
      "mesh": 7,
      "name": "ThickPaint_geo_ThickPaint_0"
    }
  ],
  "samplers": [
    {
      "magFilter": 9729,
      "minFilter": 9987,
      "wrapS": 10497,
      "wrapT": 10497
    }
  ],
  "scene": 0,
  "scenes": [
    {
      "name": "Sketchfab_Scene",
      "nodes": [
        0
      ]
    }
  ],
  "textures": [
    {
      "sampler": 0,
      "source": 0
    },
    {
      "sampler": 0,
      "source": 1
    },
    {
      "sampler": 0,
      "source": 2
    },
    {
      "sampler": 0,
      "source": 3
    },
    {
      "sampler": 0,
      "source": 4
    },
    {
      "sampler": 0,
      "source": 5
    },
    {
      "sampler": 0,
      "source": 6
    }
  ]
}
